<svg version="1.1" id="Layer_1" xmlns:x="ns_extend;" xmlns:i="ns_ai;" xmlns:graph="ns_graphs;" xmlns="http://www.w3.org/2000/svg" xmlns:xlink="http://www.w3.org/1999/xlink" x="0px" y="0px" viewBox="0 0 48 66.8" style="enable-background:new 0 0 48 66.8;" xml:space="preserve">
 <style type="text/css">
  .st0{fill:#0073FF;}
 </style>
 <metadata>
  <sfw xmlns="ns_sfw;">
   <slices>
   </slices>
   <sliceSourceBounds bottomLeftOrigin="true" height="66.8" width="48" x="0" y="0">
   </sliceSourceBounds>
  </sfw>
 </metadata>
 <g>
  <path class="st0" d="M33.2,33.5h6.7c0.6,0,1-0.4,1-1c0-0.1,0-0.3-0.1-0.4L29.3,0.6C29.1,0.3,28.8,0,28.4,0h-6.7c-0.6,0-1,0.4-1,1
		c0,0.1,0,0.2,0.1,0.3l11.5,31.5C32.4,33.2,32.8,33.5,33.2,33.5z">
  </path>
  <path class="st0" d="M32,66.8h6.7c0.6,0,1-0.4,1-1c0-0.1,0-0.2-0.1-0.3L15.9,0.7C15.7,0.3,15.3,0,14.9,0H8.2c-0.6,0-1,0.4-1,1
		c0,0.1,0,0.2,0.1,0.3l23.8,64.8C31.2,66.6,31.6,66.8,32,66.8z">
  </path>
  <path class="st0" d="M18.8,66.8h6.7c0.5,0,1-0.4,1-0.9c0-0.1,0-0.3-0.1-0.4L14.8,34.1c-0.1-0.4-0.5-0.6-0.9-0.6H7.2
		c-0.5,0-0.9,0.5-0.9,1c0,0.1,0,0.2,0.1,0.3l11.5,31.5C18,66.6,18.4,66.8,18.8,66.8z">
  </path>
  <path class="st0" d="M34,1.4l5.4,14.7c0.1,0.4,0.5,0.6,0.9,0.6H47c0.6,0,1-0.4,1-1c0-0.1,0-0.2-0.1-0.3L42.5,0.7
		C42.4,0.3,42,0,41.6,0h-6.7c-0.6,0-1,0.4-1,1C33.9,1.1,33.9,1.3,34,1.4z">
  </path>
  <path class="st0" d="M6.4,66.8h6.7c0.6,0,1-0.4,1-1c0-0.1,0-0.2-0.1-0.3L8.6,50.7c-0.1-0.4-0.5-0.6-0.9-0.6H1c-0.6,0-1,0.4-1,1
		c0,0.1,0,0.2,0.1,0.3l5.4,14.8C5.6,66.6,6,66.8,6.4,66.8z">
  </path>
 </g>
</svg>